<mxfile host="app.diagrams.net" modified="2023-12-06T03:49:47.655Z" agent="Mozilla/5.0 (Macintosh; Intel Mac OS X 10_15_7) AppleWebKit/537.36 (KHTML, like Gecko) Chrome/119.0.0.0 Safari/537.36" etag="BgdKjJHjXhGMFAAQdsQL" version="22.1.5" type="github">
  <diagram id="6a731a19-8d31-9384-78a2-239565b7b9f0" name="Page-1">
    <mxGraphModel dx="867" dy="555" grid="1" gridSize="10" guides="1" tooltips="1" connect="1" arrows="1" fold="1" page="1" pageScale="1" pageWidth="1169" pageHeight="827" background="none" math="0" shadow="0">
      <root>
        <mxCell id="0" />
        <mxCell id="1" parent="0" />
        <mxCell id="2" value="start" style="shape=mxgraph.flowchart.terminator;strokeWidth=2;gradientColor=none;gradientDirection=north;fontStyle=0;html=1;" parent="1" vertex="1">
          <mxGeometry x="320" y="60" width="120" height="30" as="geometry" />
        </mxCell>
        <mxCell id="7" style="fontStyle=1;strokeColor=#003366;strokeWidth=1;html=1;entryX=0.5;entryY=0;entryDx=0;entryDy=0;" parent="1" source="2" target="9Rn4wlCRDOwKUwh5z50I-55" edge="1">
          <mxGeometry relative="1" as="geometry">
            <mxPoint x="320" y="130" as="targetPoint" />
          </mxGeometry>
        </mxCell>
        <mxCell id="8" style="fontStyle=1;strokeColor=#003366;strokeWidth=1;html=1;" parent="1" edge="1">
          <mxGeometry relative="1" as="geometry">
            <mxPoint x="380" y="150" as="sourcePoint" />
            <mxPoint x="380" y="200" as="targetPoint" />
          </mxGeometry>
        </mxCell>
        <mxCell id="12" value="" style="edgeStyle=elbowEdgeStyle;elbow=horizontal;fontColor=#001933;fontStyle=1;strokeColor=#003366;strokeWidth=1;html=1;" parent="1" source="6" edge="1">
          <mxGeometry width="100" height="100" as="geometry">
            <mxPoint y="100" as="sourcePoint" />
            <mxPoint x="380" y="430" as="targetPoint" />
            <Array as="points">
              <mxPoint x="380" y="400" />
            </Array>
          </mxGeometry>
        </mxCell>
        <mxCell id="17" value="" style="edgeStyle=elbowEdgeStyle;elbow=horizontal;fontStyle=1;strokeColor=#003366;strokeWidth=1;html=1;exitX=0.5;exitY=1;exitDx=0;exitDy=0;" parent="1" source="9Rn4wlCRDOwKUwh5z50I-61" edge="1">
          <mxGeometry width="100" height="100" as="geometry">
            <mxPoint x="320" y="590" as="sourcePoint" />
            <mxPoint x="380" y="540" as="targetPoint" />
            <Array as="points">
              <mxPoint x="380" y="520" />
            </Array>
          </mxGeometry>
        </mxCell>
        <mxCell id="23" value="" style="edgeStyle=elbowEdgeStyle;elbow=horizontal;exitX=0.5;exitY=1;fontStyle=1;strokeColor=#003366;strokeWidth=1;html=1;exitDx=0;exitDy=0;" parent="1" source="9Rn4wlCRDOwKUwh5z50I-65" edge="1">
          <mxGeometry width="100" height="100" as="geometry">
            <mxPoint x="380" y="870" as="sourcePoint" />
            <mxPoint x="380" y="820" as="targetPoint" />
          </mxGeometry>
        </mxCell>
        <mxCell id="9Rn4wlCRDOwKUwh5z50I-55" value="repeat t&amp;lt;=10" style="swimlane;whiteSpace=wrap;html=1;" vertex="1" parent="1">
          <mxGeometry x="80" y="120" width="600" height="860" as="geometry" />
        </mxCell>
        <UserObject label="집을 돌아다님" treeRoot="1" id="9Rn4wlCRDOwKUwh5z50I-59">
          <mxCell style="whiteSpace=wrap;html=1;align=center;treeFolding=1;treeMoving=1;newEdgeStyle={&quot;edgeStyle&quot;:&quot;elbowEdgeStyle&quot;,&quot;startArrow&quot;:&quot;none&quot;,&quot;endArrow&quot;:&quot;none&quot;};strokeWidth=2;" vertex="1" parent="9Rn4wlCRDOwKUwh5z50I-55">
            <mxGeometry x="240" y="80" width="120" height="60" as="geometry" />
          </mxCell>
        </UserObject>
        <mxCell id="6" value="고양이 발견" style="shape=mxgraph.flowchart.decision;strokeWidth=2;gradientColor=none;gradientDirection=north;fontStyle=0;html=1;" parent="9Rn4wlCRDOwKUwh5z50I-55" vertex="1">
          <mxGeometry x="250" y="190" width="99" height="57" as="geometry" />
        </mxCell>
        <mxCell id="9" style="entryX=0.5;entryY=0;entryPerimeter=0;fontStyle=1;strokeColor=#003366;strokeWidth=1;html=1;exitX=0.5;exitY=1;exitDx=0;exitDy=0;" parent="9Rn4wlCRDOwKUwh5z50I-55" source="9Rn4wlCRDOwKUwh5z50I-59" target="6" edge="1">
          <mxGeometry relative="1" as="geometry">
            <mxPoint x="240" y="210" as="sourcePoint" />
          </mxGeometry>
        </mxCell>
        <mxCell id="10" value="" style="edgeStyle=elbowEdgeStyle;elbow=horizontal;exitX=1;exitY=0.5;exitPerimeter=0;fontStyle=1;strokeColor=#003366;strokeWidth=1;html=1;" parent="9Rn4wlCRDOwKUwh5z50I-55" source="6" edge="1">
          <mxGeometry x="301" y="-91.5" width="100" height="100" as="geometry">
            <mxPoint x="670" y="327" as="sourcePoint" />
            <mxPoint x="300" y="60" as="targetPoint" />
            <Array as="points">
              <mxPoint x="460" y="120" />
            </Array>
          </mxGeometry>
        </mxCell>
        <mxCell id="11" value="YES" style="text;fontStyle=0;html=1;strokeColor=none;gradientColor=none;fillColor=none;strokeWidth=2;" parent="9Rn4wlCRDOwKUwh5z50I-55" vertex="1">
          <mxGeometry x="319.5" y="260" width="40" height="26" as="geometry" />
        </mxCell>
        <UserObject label="줄을 흔든다" treeRoot="1" id="9Rn4wlCRDOwKUwh5z50I-61">
          <mxCell style="whiteSpace=wrap;html=1;align=center;treeFolding=1;treeMoving=1;newEdgeStyle={&quot;edgeStyle&quot;:&quot;elbowEdgeStyle&quot;,&quot;startArrow&quot;:&quot;none&quot;,&quot;endArrow&quot;:&quot;none&quot;};strokeWidth=2;" vertex="1" parent="9Rn4wlCRDOwKUwh5z50I-55">
            <mxGeometry x="239.5" y="310" width="120" height="60" as="geometry" />
          </mxCell>
        </UserObject>
        <mxCell id="9Rn4wlCRDOwKUwh5z50I-62" value="고양이가 일정 거리 이하&lt;br&gt;가까워짐" style="shape=mxgraph.flowchart.decision;strokeWidth=2;gradientColor=none;gradientDirection=north;fontStyle=0;html=1;" vertex="1" parent="9Rn4wlCRDOwKUwh5z50I-55">
          <mxGeometry x="210.25" y="420" width="179.5" height="90" as="geometry" />
        </mxCell>
        <mxCell id="21" value="" style="edgeStyle=elbowEdgeStyle;elbow=horizontal;fontStyle=1;strokeColor=#003366;strokeWidth=1;html=1;exitX=0.5;exitY=1;exitDx=0;exitDy=0;exitPerimeter=0;" parent="9Rn4wlCRDOwKUwh5z50I-55" source="9Rn4wlCRDOwKUwh5z50I-62" edge="1">
          <mxGeometry x="-80" y="-120" width="100" height="100" as="geometry">
            <mxPoint x="310" y="520" as="sourcePoint" />
            <mxPoint x="300" y="580" as="targetPoint" />
            <Array as="points" />
          </mxGeometry>
        </mxCell>
        <UserObject label="라인을 따라 물러남" treeRoot="1" id="9Rn4wlCRDOwKUwh5z50I-65">
          <mxCell style="whiteSpace=wrap;html=1;align=center;treeFolding=1;treeMoving=1;newEdgeStyle={&quot;edgeStyle&quot;:&quot;elbowEdgeStyle&quot;,&quot;startArrow&quot;:&quot;none&quot;,&quot;endArrow&quot;:&quot;none&quot;};strokeWidth=2;" vertex="1" parent="9Rn4wlCRDOwKUwh5z50I-55">
            <mxGeometry x="239.5" y="580" width="120" height="60" as="geometry" />
          </mxCell>
        </UserObject>
        <mxCell id="9Rn4wlCRDOwKUwh5z50I-67" style="edgeStyle=orthogonalEdgeStyle;rounded=0;orthogonalLoop=1;jettySize=auto;html=1;exitX=0.5;exitY=1;exitDx=0;exitDy=0;exitPerimeter=0;endArrow=none;endFill=0;" edge="1" parent="9Rn4wlCRDOwKUwh5z50I-55" source="9Rn4wlCRDOwKUwh5z50I-66">
          <mxGeometry relative="1" as="geometry">
            <mxPoint x="520" y="50" as="targetPoint" />
          </mxGeometry>
        </mxCell>
        <mxCell id="9Rn4wlCRDOwKUwh5z50I-66" value="고양이와의 거리 &amp;gt;n" style="shape=mxgraph.flowchart.decision;strokeWidth=2;gradientColor=none;gradientDirection=north;fontStyle=0;html=1;" vertex="1" parent="9Rn4wlCRDOwKUwh5z50I-55">
          <mxGeometry x="240.5" y="700" width="119" height="78.5" as="geometry" />
        </mxCell>
        <mxCell id="ATTnk2A-RAo8i4ZOHVnj-55" value="YES" style="text;html=1;align=center;verticalAlign=middle;resizable=0;points=[];autosize=1;strokeColor=none;fillColor=none;" vertex="1" parent="9Rn4wlCRDOwKUwh5z50I-55">
          <mxGeometry x="520" y="398" width="50" height="30" as="geometry" />
        </mxCell>
        <mxCell id="ATTnk2A-RAo8i4ZOHVnj-56" value="" style="edgeStyle=elbowEdgeStyle;elbow=horizontal;fontStyle=1;strokeColor=#003366;strokeWidth=1;html=1;exitX=1;exitY=0.5;exitDx=0;exitDy=0;exitPerimeter=0;" edge="1" parent="9Rn4wlCRDOwKUwh5z50I-55" source="9Rn4wlCRDOwKUwh5z50I-62">
          <mxGeometry x="221" y="-211.5" width="100" height="100" as="geometry">
            <mxPoint x="390" y="470" as="sourcePoint" />
            <mxPoint x="300" y="390" as="targetPoint" />
            <Array as="points">
              <mxPoint x="500" y="370" />
            </Array>
          </mxGeometry>
        </mxCell>
        <mxCell id="ATTnk2A-RAo8i4ZOHVnj-57" value="NO" style="text;html=1;align=center;verticalAlign=middle;resizable=0;points=[];autosize=1;strokeColor=none;fillColor=none;" vertex="1" parent="9Rn4wlCRDOwKUwh5z50I-55">
          <mxGeometry x="460" y="415" width="40" height="30" as="geometry" />
        </mxCell>
        <mxCell id="ATTnk2A-RAo8i4ZOHVnj-73" value="YES" style="text;fontStyle=0;html=1;strokeColor=none;gradientColor=none;fillColor=none;strokeWidth=2;" vertex="1" parent="9Rn4wlCRDOwKUwh5z50I-55">
          <mxGeometry x="260" y="530" width="40" height="26" as="geometry" />
        </mxCell>
        <mxCell id="ATTnk2A-RAo8i4ZOHVnj-75" value="" style="edgeStyle=elbowEdgeStyle;elbow=horizontal;fontStyle=1;strokeColor=#003366;strokeWidth=1;html=1;entryX=1;entryY=0.25;entryDx=0;entryDy=0;" edge="1" parent="9Rn4wlCRDOwKUwh5z50I-55" target="ATTnk2A-RAo8i4ZOHVnj-73">
          <mxGeometry x="141" y="-331.5" width="100" height="100" as="geometry">
            <mxPoint x="360" y="740" as="sourcePoint" />
            <mxPoint x="270" y="660" as="targetPoint" />
            <Array as="points">
              <mxPoint x="470" y="640" />
            </Array>
          </mxGeometry>
        </mxCell>
        <mxCell id="ATTnk2A-RAo8i4ZOHVnj-76" value="NO" style="text;html=1;align=center;verticalAlign=middle;resizable=0;points=[];autosize=1;strokeColor=none;fillColor=none;" vertex="1" parent="9Rn4wlCRDOwKUwh5z50I-55">
          <mxGeometry x="460" y="620" width="40" height="30" as="geometry" />
        </mxCell>
        <mxCell id="9Rn4wlCRDOwKUwh5z50I-60" value="NO" style="text;html=1;align=center;verticalAlign=middle;resizable=0;points=[];autosize=1;strokeColor=none;fillColor=none;" vertex="1" parent="1">
          <mxGeometry x="540" y="258" width="40" height="30" as="geometry" />
        </mxCell>
        <mxCell id="9Rn4wlCRDOwKUwh5z50I-70" value="" style="endArrow=none;html=1;rounded=0;startArrow=classic;startFill=1;" edge="1" parent="1">
          <mxGeometry width="50" height="50" relative="1" as="geometry">
            <mxPoint x="380" y="170" as="sourcePoint" />
            <mxPoint x="600" y="170" as="targetPoint" />
          </mxGeometry>
        </mxCell>
        <mxCell id="ATTnk2A-RAo8i4ZOHVnj-77" value="YES" style="text;html=1;align=center;verticalAlign=middle;resizable=0;points=[];autosize=1;strokeColor=none;fillColor=none;" vertex="1" parent="1">
          <mxGeometry x="335" y="768" width="50" height="30" as="geometry" />
        </mxCell>
        <mxCell id="ATTnk2A-RAo8i4ZOHVnj-79" value="YES" style="text;html=1;align=center;verticalAlign=middle;resizable=0;points=[];autosize=1;strokeColor=none;fillColor=none;" vertex="1" parent="1">
          <mxGeometry x="334" y="895" width="50" height="30" as="geometry" />
        </mxCell>
        <mxCell id="ATTnk2A-RAo8i4ZOHVnj-80" value="YES" style="text;html=1;align=center;verticalAlign=middle;resizable=0;points=[];autosize=1;strokeColor=none;fillColor=none;" vertex="1" parent="1">
          <mxGeometry x="325" y="498" width="50" height="30" as="geometry" />
        </mxCell>
      </root>
    </mxGraphModel>
  </diagram>
</mxfile>
